Coordinates
version=1
nRows=41
nColumns=38
inDegrees=no

Units are S.I. units (second, meters, Newtons, ...)
If the header above contains a line with 'inDegrees', this indicates whether rotational values are in degrees (yes) or radians (no).

endheader
time	pelvis_tilt	pelvis_list	pelvis_rotation	pelvis_tx	pelvis_ty	pelvis_tz	hip_flexion_r	hip_adduction_r	hip_rotation_r	knee_angle_r	ankle_angle_r	subtalar_angle_r	mtp_angle_r	hip_flexion_l	hip_adduction_l	hip_rotation_l	knee_angle_l	ankle_angle_l	subtalar_angle_l	mtp_angle_l	lumbar_extension	lumbar_bending	lumbar_rotation	arm_flex_r	arm_add_r	arm_rot_r	elbow_flex_r	pro_sup_r	wrist_flex_r	wrist_dev_r	arm_flex_l	arm_add_l	arm_rot_l	elbow_flex_l	pro_sup_l	wrist_flex_l	wrist_dev_l
0.75	-0.324828	1.34344	-1.06537	0.840052	1.0594	0.932589	0.0905838	0.0240666	-0.261372	0.0981322	-0.258861	0	0	-0.50718	-0.191875	-0.407607	0.376054	-0.0999999	0	0	-0.365692	0.109785	-0.29098	0.0332288	-0.437795	0.692822	0.636157	0.857503	0	0	-0.0776934	-0.436391	-0.0537838	1.13962	1.5708	0	0
0.76	-0.330756	1.33963	-1.0564	0.839679	1.04695	0.933006	0.0833734	0.0290259	-0.267717	0.107535	-0.273696	0	0	-0.511684	-0.202515	-0.410272	0.39531	-0.116932	0	0	-0.366477	0.117194	-0.294996	0.0332243	-0.438752	0.700585	0.636963	0.847343	0	0	-0.0884027	-0.429621	-0.0572517	1.13768	1.5708	0	0
0.77	-0.334424	1.33706	-1.05017	0.839152	1.03424	0.933434	0.0721956	0.0341945	-0.269664	0.106425	-0.303307	0	0	-0.513232	-0.212893	-0.41356	0.418162	-0.139027	0	0	-0.365746	0.123217	-0.29931	0.0331992	-0.439786	0.710367	0.637861	0.835009	0	0	-0.1011	-0.422507	-0.0616242	1.13555	1.5708	0	0
0.78	-0.340689	1.33658	-1.04253	0.838353	1.02125	0.933885	0.0584167	0.0406065	-0.264878	0.0950569	-0.349594	0	0	-0.510542	-0.223056	-0.415804	0.444327	-0.168828	0	0	-0.366575	0.126826	-0.293048	-0.0166694	-0.393063	0.507806	0.630325	1.04982	0	0	-0.108049	-0.417959	-0.055876	1.13518	1.5708	0	0
0.79	-0.335355	1.32982	-1.04705	0.837546	1.00863	0.934723	0.039669	0.047482	-0.266934	0.0931398	-0.378114	0	0	-0.512545	-0.234094	-0.4199	0.475691	-0.19675	0	0	-0.365678	0.133354	-0.307885	0.0475663	-0.451825	0.785407	0.642038	0.753907	0	0	-0.131612	-0.410933	-0.0687553	1.13062	1.5708	0	0
0.8	-0.332932	1.3209	-1.04734	0.836696	0.995719	0.93605	-0.00868976	0.0745963	-0.238465	0.00079337	-0.464021	0	0	-0.513586	-0.248511	-0.422109	0.511104	-0.232771	0	0	-0.371768	0.140483	-0.308456	0.0369854	-0.448737	0.762237	0.646649	0.771955	0	0	-0.142769	-0.405601	-0.0675765	1.1272	1.5708	0	0
0.81	-0.338127	1.31534	-1.04379	0.83569	0.983112	0.937283	-0.0169893	0.0809098	-0.248326	0.0197631	-0.459967	0	0	-0.50696	-0.261465	-0.423266	0.554324	-0.262602	0	0	-0.37443	0.147186	-0.306175	0.0296134	-0.447713	0.748185	0.650933	0.782285	0	0	-0.15236	-0.397535	-0.0676134	1.12097	1.5708	0	0
0.82	-0.347672	1.30918	-1.03698	0.834468	0.970687	0.938677	-0.0246894	0.0884943	-0.25431	0.038612	-0.462123	0	0	-0.496828	-0.276044	-0.421995	0.604121	-0.283155	0	0	-0.377501	0.154354	-0.303584	0.0275384	-0.448254	0.749247	0.653758	0.779976	0	0	-0.163658	-0.390901	-0.0672594	1.1151	1.5708	0	0
0.83	-0.327267	1.30427	-1.05909	0.832374	0.959009	0.94172	-0.0330444	0.0892082	-0.26758	0.0632976	-0.448422	0	0	-0.501536	-0.237091	-0.290405	0.59037	-0.284395	0	0	-0.384572	0.152113	-0.301108	0.0330818	-0.439018	0.76217	0.639694	0.766511	0	0	-0.168933	-0.390289	-0.0595548	1.10079	1.5708	0	0
0.84	-0.343234	1.30001	-1.04738	0.830785	0.947069	0.943008	-0.0390384	0.0979965	-0.277948	0.0825445	-0.432773	0	0	-0.479887	-0.249458	-0.27944	0.65371	-0.302699	0	0	-0.385825	0.158673	-0.297314	0.0341157	-0.439727	0.770492	0.641238	0.756891	0	0	-0.180444	-0.386274	-0.0563274	1.09444	1.5708	0	0
0.85	-0.361071	1.29701	-1.03552	0.829004	0.935355	0.944019	-0.0462392	0.106859	-0.284393	0.0965314	-0.4155	0	0	-0.454154	-0.261663	-0.270656	0.72079	-0.321702	0	0	-0.385757	0.164547	-0.292112	0.0342622	-0.441849	0.777505	0.645788	0.747028	0	0	-0.191458	-0.381282	-0.0545082	1.0882	1.5708	0	0
0.86	-0.377946	1.29453	-1.02524	0.82713	0.923896	0.944845	-0.0543362	0.115251	-0.288228	0.107446	-0.398456	0	0	-0.425861	-0.273354	-0.262669	0.790633	-0.332015	0	0	-0.385508	0.169368	-0.286563	0.0344459	-0.444319	0.784157	0.651498	0.737333	0	0	-0.202536	-0.376664	-0.0532713	1.08288	1.5708	0	0
0.87	-0.397814	1.29584	-1.01209	0.825224	0.91246	0.945475	-0.0577369	0.121833	-0.291922	0.119661	-0.374053	0	0	-0.391723	-0.283806	-0.254203	0.862697	-0.330702	0	0	-0.387051	0.170957	-0.266343	-0.0370924	-0.38404	0.503221	0.646984	1.03054	0	0	-0.202093	-0.376304	-0.0367355	1.07896	1.5708	0	0
0.88	-0.399994	1.29087	-1.01623	0.823409	0.901652	0.946355	-0.0710624	0.127628	-0.293968	0.12681	-0.357008	0	0	-0.365572	-0.293801	-0.249276	0.933685	-0.324127	0	0	-0.384566	0.174363	-0.27662	0.045592	-0.456854	0.835966	0.665839	0.676817	0	0	-0.222726	-0.369728	-0.0481183	1.07098	1.5708	0	0
0.89	-0.398873	1.29107	-1.0242	0.821492	0.890622	0.947084	-0.0821385	0.129717	-0.293018	0.130395	-0.347588	0	0	-0.334926	-0.299894	-0.245333	1.00097	-0.325646	0	0	-0.384754	0.17149	-0.270733	0.0416879	-0.456546	0.828913	0.671858	0.679932	0	0	-0.232303	-0.3674	-0.0455052	1.0664	1.5708	0	0
0.9	-0.426466	1.28403	-1.00679	0.820078	0.878472	0.946792	-0.102397	0.144517	-0.286976	0.123232	-0.341409	0	0	-0.308234	-0.376695	-0.37378	1.09536	-0.366283	0	0	-0.385743	0.179385	-0.261633	0.031723	-0.468182	0.817143	0.695797	0.686382	0	0	-0.249808	-0.360804	-0.0482132	1.0711	1.5708	0	0
0.91	-0.412013	1.26481	-1.01894	0.819181	0.868109	0.950378	-0.185139	0.171858	-0.244846	0.0301197	-0.363132	0	0	-0.298094	-0.390393	-0.363034	1.14211	-0.350444	0	0	-0.407522	0.186071	-0.260233	0.0292271	-0.462232	0.79694	0.696165	0.706814	0	0	-0.254301	-0.359049	-0.0454922	1.06542	1.5708	0	0
0.92	-0.381303	1.24167	-1.03599	0.81931	0.858652	0.956901	-0.285646	0.200035	-0.255563	0	-0.346182	0	0	-0.291182	-0.34533	-0.237099	1.15123	-0.307686	0	0	-0.435707	0.194626	-0.26564	0.0386425	-0.449567	0.798986	0.676769	0.707947	0	0	-0.245168	-0.355207	-0.0391045	1.04257	1.5708	0	0
0.93	-0.356381	1.20784	-1.05268	0.81948	0.847765	0.959601	-0.359521	0.221413	-0.293046	0	-0.316287	0	0	-0.296888	-0.416054	-0.332639	1.21172	-0.287352	0	0	-0.468763	0.206648	-0.27657	0.0472006	-0.466087	0.828769	0.705422	0.675344	0	0	-0.265715	-0.351701	-0.0519285	1.05726	1.56874	0	0
0.94	-0.343346	1.20842	-1.06895	0.818117	0.837665	0.961061	-0.373971	0.218348	-0.294067	0	-0.313393	0	0	-0.267158	-0.411749	-0.323953	1.24759	-0.267017	0	0	-0.470962	0.199965	-0.275459	0.0499144	-0.464143	0.834406	0.705115	0.669991	0	0	-0.271936	-0.349543	-0.0516266	1.05081	1.56726	0	0
0.95	-0.314152	1.22059	-1.09619	0.816661	0.828947	0.963069	-0.373946	0.205622	-0.295891	0	-0.305308	0	0	-0.223227	-0.336335	-0.197315	1.26448	-0.181799	0	0	-0.465157	0.183483	-0.282137	0.0649322	-0.448412	0.85894	0.678437	0.654042	0	0	-0.271052	-0.351694	-0.0462553	1.03301	1.56801	0	0
0.96	-0.360535	1.24324	-1.05979	0.815057	0.815941	0.961732	-0.357537	0.209824	-0.294321	0	-0.207513	0	0	-0.163361	-0.397783	-0.302536	1.31477	-0.192071	0	0	-0.424667	0.181956	-0.206938	-0.109617	-0.335377	0.298026	0.67581	1.1393	0	0	-0.196844	-0.416762	0.172936	0.982774	1.42431	0	0
0.97	-0.291094	1.22625	-1.12551	0.813988	0.808816	0.96506	-0.400091	0.202154	-0.302239	0	-0.283841	0	0	-0.158034	-0.324105	-0.189463	1.31028	-0.155051	0	0	-0.463338	0.16881	-0.276545	0.0577754	-0.442315	0.842264	0.680244	0.666172	0	0	-0.280521	-0.355244	-0.0324609	1.02117	1.56234	0	0
0.98	-0.29486	1.22206	-1.13048	0.812678	0.797191	0.965069	-0.42164	0.206947	-0.306399	0	-0.27121	0	0	-0.136347	-0.38423	-0.299076	1.33853	-0.170796	0	0	-0.464236	0.166913	-0.270043	0.0498345	-0.448162	0.834235	0.694009	0.673257	0	0	-0.295942	-0.35455	-0.0317986	1.02695	1.55995	0	0
0.99	-0.275338	1.22467	-1.15223	0.811585	0.787205	0.965982	-0.435303	0.201775	-0.310729	0	-0.262568	0	0	-0.107677	-0.370953	-0.288966	1.34181	-0.155618	0	0	-0.46403	0.156882	-0.269099	0.0486676	-0.442722	0.830208	0.689447	0.677048	0	0	-0.301279	-0.357124	-0.0265104	1.0222	1.56331	0	0
1	-0.242108	1.23279	-1.18627	0.810595	0.778913	0.967442	-0.429255	0.180875	-0.320123	0	-0.252389	0	0	-0.074609	-0.295005	-0.18442	1.32268	-0.127518	0	0	-0.465724	0.142193	-0.267688	0.0513562	-0.434773	0.826342	0.681766	0.679587	0	0	-0.29743	-0.360219	-0.0201023	1.01224	1.56682	0	0
1.01	-0.241935	1.22389	-1.1981	0.80933	0.767439	0.967594	-0.455809	0.183147	-0.323203	0	-0.241878	0	0	-0.065271	-0.357358	-0.30745	1.32987	-0.155945	0	0	-0.473692	0.140072	-0.255592	0.0379417	-0.443896	0.80609	0.70396	0.694051	0	0	-0.309624	-0.360154	-0.0178157	1.02136	1.55714	0	0
1.02	-0.225854	1.22488	-1.21945	0.808344	0.757518	0.968251	-0.470583	0.177844	-0.328396	0	-0.238017	0	0	-0.0445409	-0.347166	-0.312367	1.31459	-0.146497	0	0	-0.475787	0.13108	-0.251258	0.0367249	-0.44145	0.801686	0.703053	0.699353	0	0	-0.313571	-0.360324	-0.0165413	1.0201	1.55488	0	0
1.03	-0.19564	1.23176	-1.25103	0.807519	0.749125	0.969299	-0.478295	0.166972	-0.327571	0	-0.235143	0	0	-0.0169776	-0.273533	-0.214441	1.27596	-0.114844	0	0	-0.477294	0.117389	-0.250116	0.0416527	-0.433421	0.801587	0.692945	0.701471	0	0	-0.310356	-0.359601	-0.0189466	1.01268	1.56	0	0
1.04	-0.19448	1.22209	-1.2656	0.806289	0.737564	0.969212	-0.50645	0.167045	-0.328575	0	-0.230002	0	0	-0.0174359	-0.330827	-0.341846	1.26601	-0.140736	0	0	-0.485505	0.11314	-0.237779	0.0368012	-0.444969	0.806829	0.711148	0.692363	0	0	-0.324069	-0.358077	-0.0221139	1.02224	1.55788	0	0
1.05	-0.173299	1.22477	-1.29044	0.80542	0.727992	0.969614	-0.519702	0.160225	-0.329529	0	-0.220026	0	0	0.00127596	-0.297723	-0.315105	1.22742	-0.129927	0	0	-0.492643	0.101176	-0.207189	-0.0618492	-0.37079	0.468969	0.710488	1.03	0	0	-0.3011	-0.383167	0.0364927	1.01987	1.5204	0	0
1.06	-0.164668	1.22204	-1.30755	0.804568	0.71783	0.969503	-0.523599	0.157138	-0.326345	0	-0.217307	0	0	0.00769194	-0.30369	-0.357903	1.19468	-0.135924	0	0	-0.492507	0.0955775	-0.221041	0.0249333	-0.44276	0.778255	0.717954	0.706459	0	0	-0.326856	-0.360517	-0.0171244	1.02241	1.55311	0	0
1.07	-0.157801	1.2239	-1.32163	0.803766	0.707571	0.969192	-0.523599	0.153366	-0.323079	3.81746e-08	-0.214544	0	0	0.0183178	-0.302709	-0.389898	1.15563	-0.142111	0	0	-0.491253	0.0884631	-0.213927	0.0290888	-0.446293	0.795946	0.718056	0.686015	0	0	-0.330961	-0.358062	-0.0206845	1.02123	1.55315	0	0
1.08	-0.147727	1.23127	-1.33818	0.802834	0.697109	0.968723	-0.523599	0.147384	-0.320514	1.47761e-07	-0.192423	0	0	0.0332824	-0.29186	-0.409456	1.10573	-0.162994	0	0	-0.487557	0.0772405	-0.16856	-0.0881848	-0.355027	0.400211	0.710202	1.07593	0	0	-0.2937	-0.399111	0.0822562	1.01017	1.48567	0	0
1.09	-0.141629	1.2337	-1.34948	0.802206	0.687219	0.968096	-0.523599	0.144079	-0.317642	3.08216e-07	-0.182188	0	0	0.0435105	-0.283473	-0.427143	1.05648	-0.170816	0	0	-0.485569	0.0707312	-0.158286	-0.0924513	-0.350533	0.385889	0.707539	1.08378	0	0	-0.292189	-0.405083	0.0959485	1.00695	1.47629	0	0
1.1	-0.138283	1.23917	-1.35743	0.801666	0.6772	0.967058	-0.523599	0.141024	-0.315872	4.18686e-07	-0.168346	0	0	0.0560915	-0.275236	-0.446319	1.00549	-0.177515	0	0	-0.479228	0.0653805	-0.148571	-0.0970854	-0.345511	0.370454	0.703598	1.09088	0	0	-0.289141	-0.409337	0.109376	1.00141	1.45933	0	0
1.11	-0.170135	1.27141	-1.33948	0.801078	0.667488	0.964735	-0.523599	0.130313	-0.312163	0.0112819	-0.153859	0	0	0.0933193	-0.267003	-0.460384	0.946691	-0.180558	0	0	-0.470259	0.0651695	-0.13621	-0.100198	-0.340655	0.353419	0.700745	1.09625	0	0	-0.283995	-0.415738	0.122023	0.995013	1.43636	0	0
1.12	-0.1745	1.28109	-1.33775	0.800905	0.657385	0.963251	-0.523599	0.128834	-0.309802	0.0140271	-0.134027	0	0	0.107341	-0.25849	-0.480033	0.891461	-0.178642	0	0	-0.462192	0.0627609	-0.126925	-0.104932	-0.33377	0.331803	0.696585	1.09853	0	0	-0.275991	-0.420501	0.140118	0.988028	1.41094	0	0
1.13	-0.181651	1.29102	-1.33186	0.800892	0.647274	0.961588	-0.523599	0.128705	-0.306701	0.0159717	-0.105849	0	0	0.121129	-0.249831	-0.497762	0.837017	-0.169119	0	0	-0.450845	0.0609069	-0.117119	-0.109361	-0.322781	0.303795	0.686264	1.09418	0	0	-0.266028	-0.426187	0.162715	0.977908	1.38736	0	0
1.14	-0.156814	1.28499	-1.34042	0.801525	0.635449	0.959869	-0.523599	0.14112	-0.313178	4.4261e-07	-0.0592094	0	0	0.124429	-0.239966	-0.512313	0.798549	-0.148855	0	0	-0.417186	0.0566877	-0.115032	-0.119967	-0.303959	0.26057	0.658905	1.07594	0	0	-0.25808	-0.422591	0.185126	0.955793	1.35891	0	0
1.15	-0.196898	1.30498	-1.31694	0.801442	0.628136	0.958202	-0.523599	0.129561	-0.307395	0.0238117	-0.147057	0	0	0.138254	-0.227939	-0.519465	0.713622	-0.195814	0	0	-0.456459	0.0556003	-0.146954	-0.0544512	-0.342764	0.43254	0.667996	1.04811	0	0	-0.317782	-0.375634	0.0177771	0.998541	1.4981	0	0
